<?xml version="1.0" encoding="UTF-8"?> <svg xmlns="http://www.w3.org/2000/svg" xmlns:xlink="http://www.w3.org/1999/xlink" version="1.1" id="Camada_1" x="0px" y="0px" viewBox="0 0 270.33 270.33" style="enable-background:new 0 0 270.33 270.33;" xml:space="preserve"> <style type="text/css"> .st0{fill:#070707;} </style> <g> <path class="st0" d="M62.23,159.45v-4c11.83,0,23.43-3.12,33.57-9.02c20.72-11.94,33.58-34.22,33.58-58.14 c0-23.92-12.87-46.2-33.58-58.13c-10.14-5.9-21.75-9.02-33.58-9.02v-4c12.53,0,24.84,3.31,35.58,9.56 c21.94,12.65,35.57,36.25,35.57,61.59c0,25.35-13.63,48.95-35.58,61.6C87.07,156.15,74.76,159.45,62.23,159.45"></path> <path class="st0" d="M148.28,159.45c-12.53,0-24.84-3.31-35.58-9.56c-21.94-12.65-35.57-36.25-35.57-61.59 c0-25.35,13.63-48.95,35.58-61.6c10.74-6.25,23.05-9.56,35.58-9.56v4c-11.83,0-23.43,3.12-33.57,9.02 C93.99,42.1,81.13,64.37,81.13,88.29c0,23.92,12.87,46.19,33.58,58.13c10.14,5.9,21.75,9.02,33.58,9.02c19.5,0,38-8.45,50.75-23.2 l3.03,2.62C188.55,150.49,168.95,159.45,148.28,159.45"></path> <path class="st0" d="M202.55,159.45H60.24V17.14h142.31V159.45z M64.24,155.45h134.31V21.14H64.24V155.45z"></path> <rect x="131.39" y="86.3" class="st0" width="69.15" height="4"></rect> <path class="st0" d="M59.01,177.98h13.05c1.12,0,2.3,0.13,3.55,0.38c1.25,0.26,2.49,0.66,3.72,1.22c1.23,0.56,2.42,1.29,3.55,2.18 c1.13,0.9,2.14,1.98,3,3.24c0.86,1.26,1.55,2.72,2.06,4.37c0.51,1.65,0.77,3.51,0.77,5.59c0,2.08-0.26,3.94-0.77,5.59 c-0.51,1.65-1.2,3.1-2.06,4.37c-0.86,1.27-1.86,2.34-3,3.24c-1.14,0.9-2.32,1.62-3.55,2.18c-1.23,0.56-2.47,0.97-3.72,1.22 c-1.25,0.26-2.43,0.38-3.55,0.38H59.01V177.98z M63.04,208.22h7.68c1.95,0,3.76-0.26,5.42-0.77c1.66-0.51,3.1-1.3,4.32-2.38 c1.22-1.07,2.18-2.44,2.88-4.1c0.7-1.66,1.05-3.66,1.05-6c0-2.34-0.35-4.33-1.05-6c-0.7-1.66-1.66-3.03-2.88-4.1 c-1.22-1.07-2.66-1.86-4.32-2.38c-1.66-0.51-3.47-0.77-5.42-0.77h-7.68V208.22z"></path> <path class="st0" d="M94.23,192.38c1.15-1.18,2.52-2.06,4.1-2.62c1.58-0.56,3.19-0.84,4.82-0.84c3.33,0,5.73,0.78,7.2,2.35 c1.47,1.57,2.21,3.95,2.21,7.15v9.64c0,0.64,0.03,1.31,0.1,1.99c0.06,0.69,0.14,1.32,0.24,1.9h-3.6c-0.13-0.51-0.2-1.08-0.22-1.7 c-0.02-0.63-0.02-1.18-0.02-1.66h-0.1c-0.74,1.15-1.72,2.1-2.95,2.83c-1.23,0.74-2.71,1.1-4.44,1.1c-1.15,0-2.23-0.14-3.24-0.43 c-1.01-0.29-1.89-0.71-2.64-1.27c-0.75-0.56-1.35-1.25-1.8-2.09c-0.45-0.83-0.67-1.79-0.67-2.88c0-1.86,0.48-3.31,1.44-4.37 c0.96-1.06,2.15-1.84,3.58-2.35c1.42-0.51,2.96-0.83,4.61-0.96c1.65-0.13,3.16-0.19,4.54-0.19h1.44v-0.67 c0-1.63-0.49-2.86-1.46-3.69c-0.98-0.83-2.34-1.25-4.1-1.25c-1.22,0-2.41,0.2-3.57,0.6c-1.17,0.4-2.2,1.02-3.1,1.85L94.23,192.38z M105.08,201.16c-2.4,0-4.3,0.34-5.71,1.01c-1.41,0.67-2.11,1.77-2.11,3.31c0,1.41,0.47,2.41,1.42,3c0.94,0.59,2.12,0.89,3.53,0.89 c1.09,0,2.04-0.18,2.85-0.55c0.82-0.37,1.5-0.85,2.04-1.46c0.54-0.61,0.96-1.32,1.25-2.14c0.29-0.82,0.45-1.69,0.48-2.62v-1.44 H105.08z"></path> <path class="st0" d="M118.9,180.72c0-0.73,0.27-1.38,0.79-1.92c0.53-0.54,1.18-0.82,1.94-0.82c0.77,0,1.42,0.27,1.94,0.82 c0.53,0.54,0.79,1.18,0.79,1.92c0,0.8-0.26,1.46-0.77,1.97c-0.51,0.51-1.17,0.77-1.97,0.77c-0.8,0-1.46-0.26-1.97-0.77 C119.15,182.17,118.9,181.52,118.9,180.72 M119.76,189.5h3.74v22.46h-3.74V189.5z"></path> <path class="st0" d="M130.66,192.38c1.15-1.18,2.52-2.06,4.1-2.62c1.58-0.56,3.19-0.84,4.82-0.84c3.33,0,5.73,0.78,7.2,2.35 c1.47,1.57,2.21,3.95,2.21,7.15v9.64c0,0.64,0.03,1.31,0.1,1.99c0.06,0.69,0.14,1.32,0.24,1.9h-3.6c-0.13-0.51-0.2-1.08-0.22-1.7 c-0.02-0.63-0.02-1.18-0.02-1.66h-0.1c-0.74,1.15-1.72,2.1-2.95,2.83c-1.23,0.74-2.71,1.1-4.44,1.1c-1.15,0-2.23-0.14-3.24-0.43 c-1.01-0.29-1.89-0.71-2.64-1.27c-0.75-0.56-1.35-1.25-1.8-2.09c-0.45-0.83-0.67-1.79-0.67-2.88c0-1.86,0.48-3.31,1.44-4.37 c0.96-1.06,2.15-1.84,3.57-2.35c1.42-0.51,2.96-0.83,4.61-0.96c1.65-0.13,3.16-0.19,4.54-0.19h1.44v-0.67 c0-1.63-0.49-2.86-1.46-3.69c-0.98-0.83-2.34-1.25-4.1-1.25c-1.22,0-2.41,0.2-3.57,0.6c-1.17,0.4-2.2,1.02-3.1,1.85L130.66,192.38z M141.5,201.16c-2.4,0-4.3,0.34-5.71,1.01c-1.41,0.67-2.11,1.77-2.11,3.31c0,1.41,0.47,2.41,1.42,3c0.94,0.59,2.12,0.89,3.53,0.89 c1.09,0,2.04-0.18,2.85-0.55c0.82-0.37,1.49-0.85,2.04-1.46c0.54-0.61,0.96-1.32,1.25-2.14c0.29-0.82,0.45-1.69,0.48-2.62v-1.44 H141.5z"></path> <path class="st0" d="M155.85,194.83c0-1.02-0.03-1.98-0.1-2.88c-0.07-0.89-0.1-1.71-0.1-2.45h3.55c0,0.61,0.02,1.22,0.05,1.82 c0.03,0.61,0.05,1.23,0.05,1.87h0.1c0.26-0.54,0.62-1.07,1.08-1.58c0.46-0.51,1.01-0.97,1.66-1.37c0.64-0.4,1.36-0.72,2.16-0.96 c0.8-0.24,1.66-0.36,2.59-0.36c1.47,0,2.74,0.22,3.82,0.67c1.07,0.45,1.96,1.07,2.66,1.87c0.7,0.8,1.22,1.77,1.56,2.9 c0.34,1.13,0.51,2.37,0.51,3.72v13.87h-3.74v-13.49c0-1.89-0.42-3.38-1.25-4.46c-0.83-1.09-2.13-1.63-3.89-1.63 c-1.22,0-2.26,0.21-3.14,0.62c-0.88,0.42-1.6,1.01-2.16,1.78c-0.56,0.77-0.98,1.68-1.25,2.74c-0.27,1.05-0.41,2.22-0.41,3.5v10.94 h-3.74V194.83z"></path> <path class="st0" d="M202.59,207.88c-1.34,1.73-2.82,2.94-4.42,3.62c-1.6,0.69-3.45,1.03-5.57,1.03c-1.76,0-3.34-0.31-4.75-0.93 c-1.41-0.63-2.6-1.46-3.58-2.52c-0.98-1.05-1.73-2.3-2.26-3.74c-0.53-1.44-0.79-2.98-0.79-4.61c0-1.73,0.29-3.32,0.86-4.78 c0.58-1.46,1.38-2.7,2.4-3.74c1.02-1.04,2.24-1.85,3.65-2.42c1.41-0.58,2.94-0.86,4.61-0.86c1.57,0,3.01,0.26,4.32,0.79 c1.31,0.53,2.44,1.29,3.38,2.3c0.94,1.01,1.67,2.24,2.18,3.7c0.51,1.46,0.77,3.11,0.77,4.97v1.2h-18.14 c0.06,0.96,0.3,1.88,0.7,2.76c0.4,0.88,0.92,1.65,1.56,2.3c0.64,0.66,1.39,1.18,2.26,1.56c0.86,0.38,1.81,0.57,2.83,0.57 c1.63,0,3.01-0.29,4.13-0.86c1.12-0.58,2.13-1.42,3.02-2.54L202.59,207.88z M199.38,198.72c-0.06-1.92-0.69-3.46-1.87-4.61 c-1.18-1.15-2.82-1.73-4.9-1.73c-2.08,0-3.76,0.58-5.04,1.73c-1.28,1.15-2.05,2.69-2.3,4.61H199.38z"></path> <path class="st0" d="M86.67,251.75c-1.95,1.09-4.01,1.89-6.17,2.4c-2.16,0.51-4.34,0.77-6.55,0.77c-2.66,0-5.09-0.43-7.29-1.3 c-2.21-0.86-4.12-2.08-5.74-3.65c-1.61-1.57-2.87-3.45-3.77-5.64c-0.9-2.19-1.34-4.61-1.34-7.27c0-2.69,0.47-5.13,1.42-7.32 c0.94-2.19,2.25-4.06,3.91-5.61c1.66-1.55,3.6-2.76,5.81-3.62c2.21-0.86,4.59-1.3,7.15-1.3c2.24,0,4.39,0.34,6.46,1.01 c2.06,0.67,3.91,1.82,5.54,3.46l-3.02,3.17c-1.15-1.25-2.55-2.21-4.2-2.88c-1.65-0.67-3.34-1.01-5.06-1.01 c-1.95,0-3.76,0.35-5.42,1.06c-1.66,0.7-3.11,1.68-4.34,2.93c-1.23,1.25-2.19,2.74-2.88,4.46c-0.69,1.73-1.03,3.62-1.03,5.66 c0,2.02,0.34,3.89,1.03,5.61c0.69,1.73,1.65,3.22,2.88,4.49c1.23,1.27,2.71,2.25,4.44,2.95c1.73,0.7,3.63,1.05,5.71,1.05 c1.38,0,2.82-0.17,4.32-0.5c1.5-0.34,2.88-0.82,4.13-1.46v-10.42h-7.82v-3.74h11.85V251.75z"></path> <path class="st0" d="M94.16,234.47c1.15-1.18,2.52-2.06,4.1-2.62c1.58-0.56,3.19-0.84,4.82-0.84c3.33,0,5.73,0.78,7.2,2.35 c1.47,1.57,2.21,3.95,2.21,7.15v9.65c0,0.64,0.03,1.3,0.1,1.99c0.06,0.69,0.14,1.32,0.24,1.9h-3.6c-0.13-0.51-0.2-1.08-0.22-1.7 c-0.02-0.63-0.02-1.18-0.02-1.66h-0.1c-0.74,1.15-1.72,2.1-2.95,2.83c-1.23,0.74-2.71,1.1-4.44,1.1c-1.15,0-2.23-0.15-3.24-0.43 c-1.01-0.29-1.89-0.71-2.64-1.27c-0.75-0.56-1.35-1.25-1.8-2.09c-0.45-0.83-0.67-1.79-0.67-2.88c0-1.85,0.48-3.31,1.44-4.37 c0.96-1.06,2.15-1.84,3.58-2.35c1.42-0.51,2.96-0.83,4.61-0.96c1.65-0.13,3.16-0.19,4.53-0.19h1.44v-0.67 c0-1.63-0.49-2.86-1.46-3.7c-0.98-0.83-2.34-1.25-4.1-1.25c-1.22,0-2.41,0.2-3.57,0.6c-1.17,0.4-2.2,1.02-3.1,1.85L94.16,234.47z M105.01,243.26c-2.4,0-4.3,0.34-5.71,1.01c-1.41,0.67-2.11,1.77-2.11,3.31c0,1.41,0.47,2.41,1.42,3c0.94,0.59,2.12,0.89,3.53,0.89 c1.09,0,2.04-0.18,2.86-0.55c0.82-0.37,1.49-0.85,2.04-1.46c0.54-0.61,0.96-1.32,1.25-2.14c0.29-0.82,0.45-1.69,0.48-2.62v-1.44 H105.01z"></path> <path class="st0" d="M119.84,248.15c0.74,0.93,1.54,1.66,2.42,2.21c0.88,0.55,1.99,0.81,3.34,0.81c0.58,0,1.16-0.06,1.75-0.19 c0.59-0.13,1.13-0.34,1.61-0.62c0.48-0.29,0.86-0.65,1.15-1.08c0.29-0.43,0.43-0.95,0.43-1.56c0-0.61-0.14-1.1-0.41-1.49 c-0.27-0.38-0.63-0.71-1.08-0.98c-0.45-0.27-0.96-0.49-1.54-0.65c-0.58-0.16-1.17-0.3-1.77-0.43c-1.06-0.22-2.06-0.48-3.02-0.77 c-0.96-0.29-1.8-0.66-2.52-1.13c-0.72-0.46-1.29-1.06-1.73-1.8c-0.43-0.73-0.65-1.68-0.65-2.83c0-1.09,0.24-2.05,0.72-2.88 c0.48-0.83,1.12-1.52,1.92-2.06c0.8-0.54,1.7-0.96,2.69-1.25c0.99-0.29,2.02-0.43,3.07-0.43c1.6,0,3.08,0.32,4.44,0.96 c1.36,0.64,2.42,1.68,3.19,3.12l-3.12,2.07c-0.48-0.8-1.11-1.45-1.89-1.95c-0.78-0.49-1.74-0.74-2.86-0.74 c-0.51,0-1.03,0.07-1.56,0.19c-0.53,0.13-1,0.32-1.42,0.58c-0.42,0.26-0.76,0.58-1.03,0.98c-0.27,0.4-0.41,0.86-0.41,1.37 c0,0.48,0.15,0.89,0.45,1.22c0.3,0.34,0.72,0.63,1.25,0.89c0.53,0.26,1.14,0.48,1.82,0.67c0.69,0.19,1.4,0.35,2.14,0.48 c0.99,0.19,1.94,0.44,2.83,0.74c0.89,0.3,1.68,0.71,2.35,1.22c0.67,0.51,1.2,1.15,1.58,1.92c0.38,0.77,0.58,1.71,0.58,2.83 c0,1.28-0.26,2.37-0.77,3.26c-0.51,0.9-1.19,1.62-2.04,2.18c-0.85,0.56-1.81,0.97-2.88,1.22c-1.07,0.26-2.17,0.38-3.29,0.38 c-1.92,0-3.58-0.3-4.97-0.89c-1.39-0.59-2.65-1.69-3.77-3.29L119.84,248.15z"></path> <path class="st0" d="M139.61,231.59h3.74v3.26h0.1c1.02-1.22,2.21-2.16,3.58-2.83c1.36-0.67,2.86-1.01,4.49-1.01 c1.76,0,3.37,0.3,4.82,0.89c1.46,0.59,2.69,1.42,3.72,2.47c1.02,1.05,1.82,2.3,2.4,3.74c0.58,1.44,0.86,3.01,0.86,4.7 c0,1.7-0.29,3.26-0.86,4.7c-0.58,1.44-1.37,2.69-2.37,3.74c-1.01,1.06-2.2,1.88-3.58,2.47c-1.38,0.59-2.85,0.89-4.42,0.89 c-2.02,0-3.78-0.44-5.3-1.32c-1.52-0.88-2.63-1.96-3.34-3.24h-0.1V265h-3.74V231.59z M143.35,242.82c0,1.18,0.18,2.28,0.55,3.29 c0.37,1.01,0.9,1.89,1.61,2.64c0.7,0.75,1.54,1.34,2.52,1.78c0.98,0.43,2.07,0.65,3.29,0.65c1.22,0,2.31-0.22,3.29-0.65 c0.98-0.43,1.82-1.02,2.52-1.78c0.7-0.75,1.24-1.63,1.61-2.64c0.37-1.01,0.55-2.1,0.55-3.29s-0.19-2.28-0.55-3.29 c-0.37-1.01-0.9-1.89-1.61-2.64c-0.7-0.75-1.54-1.34-2.52-1.77c-0.98-0.43-2.07-0.65-3.29-0.65c-1.22,0-2.31,0.22-3.29,0.65 c-0.98,0.43-1.82,1.02-2.52,1.77c-0.7,0.75-1.24,1.63-1.61,2.64C143.53,240.54,143.35,241.64,143.35,242.82z"></path> <path class="st0" d="M168.83,234.47c1.15-1.18,2.52-2.06,4.1-2.62c1.58-0.56,3.19-0.84,4.82-0.84c3.33,0,5.73,0.78,7.2,2.35 c1.47,1.57,2.21,3.95,2.21,7.15v9.65c0,0.64,0.03,1.3,0.1,1.99c0.06,0.69,0.14,1.32,0.24,1.9h-3.6c-0.13-0.51-0.2-1.08-0.22-1.7 c-0.02-0.63-0.02-1.18-0.02-1.66h-0.1c-0.74,1.15-1.72,2.1-2.95,2.83c-1.23,0.74-2.71,1.1-4.44,1.1c-1.15,0-2.23-0.15-3.24-0.43 c-1.01-0.29-1.89-0.71-2.64-1.27c-0.75-0.56-1.35-1.25-1.8-2.09c-0.45-0.83-0.67-1.79-0.67-2.88c0-1.85,0.48-3.31,1.44-4.37 c0.96-1.06,2.15-1.84,3.57-2.35c1.42-0.51,2.96-0.83,4.61-0.96c1.65-0.13,3.16-0.19,4.53-0.19h1.44v-0.67 c0-1.63-0.49-2.86-1.46-3.7s-2.34-1.25-4.1-1.25c-1.22,0-2.41,0.2-3.57,0.6c-1.17,0.4-2.2,1.02-3.1,1.85L168.83,234.47z M179.68,243.26c-2.4,0-4.3,0.34-5.71,1.01c-1.41,0.67-2.11,1.77-2.11,3.31c0,1.41,0.47,2.41,1.42,3c0.94,0.59,2.12,0.89,3.53,0.89 c1.09,0,2.04-0.18,2.86-0.55c0.82-0.37,1.49-0.85,2.04-1.46c0.54-0.61,0.96-1.32,1.25-2.14c0.29-0.82,0.45-1.69,0.48-2.62v-1.44 H179.68z"></path> <path class="st0" d="M194.03,236.92c0-1.02-0.03-1.98-0.1-2.88c-0.06-0.89-0.1-1.71-0.1-2.45h3.55c0,0.61,0.02,1.22,0.05,1.82 c0.03,0.61,0.05,1.23,0.05,1.87h0.1c0.26-0.54,0.62-1.07,1.08-1.58c0.46-0.51,1.02-0.97,1.66-1.37c0.64-0.4,1.36-0.72,2.16-0.96 c0.8-0.24,1.66-0.36,2.59-0.36c0.26,0,0.51,0.01,0.77,0.05c0.25,0.03,0.51,0.1,0.77,0.19l-0.24,3.79 c-0.64-0.19-1.31-0.29-2.02-0.29c-2.3,0-3.98,0.74-5.01,2.23c-1.04,1.49-1.56,3.53-1.56,6.12v10.94h-3.74V236.92z"></path> </g> </svg> 