<?xml version="1.0" encoding="utf-8"?>
<!-- Generator: Adobe Illustrator 24.1.2, SVG Export Plug-In . SVG Version: 6.00 Build 0)  -->
<svg version="1.1" id="Camada_1" xmlns="http://www.w3.org/2000/svg" xmlns:xlink="http://www.w3.org/1999/xlink" x="0px" y="0px"
	 viewBox="0 0 578 237" style="enable-background:new 0 0 578 237;" xml:space="preserve">
<style type="text/css">
	.st0{fill:#25E525;}
	.st1{fill:#000000;}
</style>
<g>
	<g>
		<path class="st0" d="M198.1,185.8c0.6,0,1.2,0,1.9,0.1c0.7,0.1,1.5,0.1,2.2,0.3c0.8,0.1,1.5,0.3,2.1,0.5l-0.4,1.8
			c-0.9-0.1-1.8-0.2-2.9-0.3c-1-0.1-1.9-0.1-2.6-0.1c-1.8,0-3.2,0.2-4.2,0.7c-1.1,0.5-1.8,1.4-2.3,2.6c-0.5,1.2-0.7,2.9-0.7,5.1
			s0.2,3.9,0.7,5.1c0.5,1.2,1.2,2.1,2.3,2.6c1.1,0.5,2.5,0.7,4.2,0.7c0.4,0,1,0,1.6,0c0.7,0,1.4-0.1,2.2-0.1
			c0.8-0.1,1.5-0.1,2.2-0.3l0.3,1.8c-1,0.3-2.1,0.5-3.3,0.7c-1.2,0.2-2.3,0.2-3.5,0.2c-2.3,0-4.2-0.4-5.6-1.1
			c-1.4-0.7-2.4-1.8-3.1-3.4c-0.6-1.6-1-3.7-1-6.3c0-2.6,0.3-4.7,1-6.3c0.6-1.6,1.7-2.7,3.1-3.4
			C193.8,186.1,195.7,185.8,198.1,185.8z"/>
		<path class="st0" d="M218,185.8c2.3,0,4.1,0.4,5.5,1.1c1.4,0.7,2.4,1.8,3,3.4c0.6,1.6,0.9,3.7,0.9,6.3c0,2.6-0.3,4.7-0.9,6.3
			c-0.6,1.6-1.6,2.7-3,3.4c-1.4,0.7-3.2,1.1-5.5,1.1c-2.3,0-4.1-0.4-5.5-1.1c-1.4-0.7-2.4-1.8-3-3.4c-0.6-1.6-0.9-3.7-0.9-6.3
			c0-2.6,0.3-4.7,0.9-6.3c0.6-1.6,1.6-2.7,3-3.4C213.9,186.1,215.8,185.8,218,185.8z M218,188.1c-1.7,0-3,0.3-3.9,0.8
			c-1,0.5-1.6,1.4-2,2.6c-0.4,1.2-0.6,2.9-0.6,5.1c0,2.1,0.2,3.8,0.6,5.1c0.4,1.2,1.1,2.1,2,2.6c1,0.5,2.3,0.8,3.9,0.8
			c1.6,0,2.9-0.3,3.9-0.8c1-0.5,1.7-1.4,2.1-2.6c0.4-1.2,0.6-2.9,0.6-5.1c0-2.2-0.2-3.9-0.6-5.1c-0.4-1.2-1.1-2.1-2.1-2.6
			C221,188.3,219.7,188.1,218,188.1z"/>
		<path class="st0" d="M235.1,202.2c0.4,0,0.7,0.1,0.8,0.3c0.2,0.2,0.2,0.4,0.2,0.8v2.4c0,0.4-0.1,0.7-0.2,0.8
			c-0.2,0.2-0.4,0.2-0.8,0.2h-0.9c-0.4,0-0.6-0.1-0.8-0.2c-0.2-0.2-0.3-0.4-0.3-0.8v-2.4c0-0.4,0.1-0.6,0.3-0.8s0.4-0.3,0.8-0.3
			H235.1z"/>
		<path class="st1" d="M271.7,186.3l-6.4,19.7c-0.1,0.3-0.2,0.5-0.4,0.6c-0.2,0.1-0.4,0.2-0.7,0.2h-2.5c-0.3,0-0.5-0.1-0.7-0.2
			c-0.2-0.2-0.3-0.4-0.4-0.7l-4.1-14.7c-0.1-0.5-0.3-1.1-0.4-1.6c-0.1-0.5-0.2-1-0.4-1.6h-0.5c-0.1,0.5-0.2,1.1-0.4,1.6
			c-0.2,0.5-0.3,1-0.4,1.6l-4,14.7c-0.1,0.3-0.2,0.5-0.4,0.7c-0.2,0.2-0.4,0.2-0.7,0.2h-2.4c-0.3,0-0.5-0.1-0.7-0.2
			c-0.2-0.1-0.3-0.3-0.4-0.6l-6.4-19.7h2.8L247,202c0.2,0.5,0.3,1,0.4,1.5c0.1,0.5,0.2,1,0.3,1.5h0.6c0.1-0.5,0.3-1,0.4-1.5
			c0.1-0.5,0.3-1,0.4-1.5l4.1-14.8c0.1-0.3,0.2-0.5,0.4-0.6c0.2-0.2,0.4-0.3,0.7-0.3h2.4c0.3,0,0.5,0.1,0.7,0.3
			c0.2,0.2,0.3,0.4,0.4,0.7l4.1,14.8c0.1,0.5,0.2,1,0.4,1.4c0.1,0.5,0.3,1,0.4,1.5h0.6c0.1-0.5,0.3-1,0.4-1.5c0.1-0.5,0.2-1,0.4-1.4
			l4.9-15.7H271.7z"/>
		<path class="st1" d="M284.8,185.8c2.3,0,4.1,0.4,5.5,1.1c1.4,0.7,2.4,1.8,3,3.4c0.6,1.6,0.9,3.7,0.9,6.3c0,2.6-0.3,4.7-0.9,6.3
			c-0.6,1.6-1.6,2.7-3,3.4c-1.4,0.7-3.2,1.1-5.5,1.1c-2.3,0-4.1-0.4-5.5-1.1c-1.4-0.7-2.4-1.8-3-3.4c-0.6-1.6-0.9-3.7-0.9-6.3
			c0-2.6,0.3-4.7,0.9-6.3c0.6-1.6,1.6-2.7,3-3.4C280.6,186.1,282.5,185.8,284.8,185.8z M284.8,188.1c-1.7,0-3,0.3-3.9,0.8
			c-1,0.5-1.6,1.4-2,2.6c-0.4,1.2-0.6,2.9-0.6,5.1c0,2.1,0.2,3.8,0.6,5.1c0.4,1.2,1.1,2.1,2,2.6c1,0.5,2.3,0.8,3.9,0.8
			c1.6,0,2.9-0.3,3.9-0.8c1-0.5,1.7-1.4,2.1-2.6c0.4-1.2,0.6-2.9,0.6-5.1c0-2.2-0.2-3.9-0.6-5.1c-0.4-1.2-1.1-2.1-2.1-2.6
			C287.7,188.3,286.4,188.1,284.8,188.1z"/>
		<path class="st1" d="M302.3,186.3l0.3,3.9l0.3,0.6v16h-2.7v-20.5H302.3z M312.5,185.8l-0.3,2.5h-1c-1.3,0-2.6,0.3-3.9,0.9
			c-1.3,0.6-2.8,1.4-4.6,2.5l-0.2-1.8c1.6-1.3,3.1-2.3,4.7-3c1.5-0.7,3.1-1.1,4.5-1.1H312.5z"/>
		<path class="st1" d="M319.6,177.2l0,13.4c0,0.8,0,1.6-0.1,2.3c-0.1,0.7-0.1,1.4-0.3,2.2c0.1,0.8,0.2,1.5,0.2,2.3
			c0,0.7,0.1,1.5,0.1,2.2v7.2h-2.7v-29.6H319.6z M323.3,194.1v2h-4.8v-2H323.3z M332.7,186.3l-6.9,7.7c-0.2,0.2-0.4,0.4-0.6,0.7
			s-0.5,0.4-0.6,0.5v0.1c0.2,0.1,0.4,0.4,0.6,0.6s0.5,0.5,0.6,0.8l7.6,10.1h-3.2l-8.6-11.7l7.9-8.7H332.7z"/>
		<path class="st1" d="M339.9,177.7c0.6,0,0.9,0.3,0.9,0.9v2.5c0,0.6-0.3,0.9-0.9,0.9h-1.3c-0.6,0-0.9-0.3-0.9-0.9v-2.5
			c0-0.6,0.3-0.9,0.9-0.9H339.9z M340.6,186.3v20.5H338v-20.5H340.6z"/>
		<path class="st1" d="M350.1,186.3l0.2,3.9l0.2,0.6v16h-2.7v-20.5H350.1z M359.8,185.8c3.7,0,5.5,1.9,5.5,5.6v15.4h-2.7v-14.7
			c0-1.5-0.3-2.5-0.8-3.1c-0.6-0.6-1.5-0.9-2.7-0.9c-1.4,0-2.7,0.3-4.1,1c-1.3,0.6-2.9,1.6-4.7,2.7l-0.1-2c1.7-1.3,3.3-2.3,4.9-3
			C356.6,186.1,358.2,185.8,359.8,185.8z"/>
		<path class="st1" d="M374.4,197.3l1.6,0.2c-0.6,0.5-1,1.1-1.2,1.8c-0.2,0.7-0.1,1.3,0.2,1.9c0.3,0.6,1,0.9,2,1.1l7.9,1.3
			c1.9,0.3,3.1,0.9,3.8,1.8c0.7,0.9,1.1,2.2,1.1,3.8c0,1.5-0.3,2.8-0.9,3.7c-0.6,0.9-1.6,1.5-3,1.9c-1.4,0.4-3.3,0.6-5.6,0.6
			c-1.8,0-3.3-0.1-4.5-0.3c-1.2-0.2-2.2-0.6-3-1c-0.8-0.5-1.3-1.1-1.6-1.9c-0.3-0.8-0.5-1.7-0.5-2.9c0-0.9,0.1-1.7,0.3-2.3
			c0.2-0.6,0.6-1.2,1.1-1.7c0.5-0.5,1.2-1,2.1-1.4l2.2-1.2l1.4,0.5l-2.1,1.5c-0.6,0.4-1.1,0.8-1.5,1.3c-0.4,0.4-0.6,0.9-0.8,1.4
			c-0.2,0.5-0.2,1.1-0.2,1.9c0,1,0.2,1.8,0.6,2.4c0.4,0.6,1.1,1,2.2,1.2c1,0.2,2.4,0.3,4.2,0.3c1.7,0,3.1-0.1,4.1-0.4
			c1-0.2,1.7-0.6,2.1-1.2s0.6-1.4,0.6-2.4c0-0.8-0.1-1.4-0.3-1.9c-0.2-0.5-0.5-0.8-1.1-1.1c-0.5-0.3-1.3-0.4-2.3-0.6l-7.8-1.2
			c-0.9-0.1-1.6-0.4-2.1-0.8c-0.5-0.4-0.9-0.9-1.1-1.5c-0.2-0.6-0.3-1.2-0.2-1.8c0.1-0.6,0.3-1.2,0.6-1.7
			C373.4,198,373.8,197.6,374.4,197.3z M380.1,185.8c2.1,0,3.8,0.2,5,0.7s2.1,1.2,2.7,2.1c0.5,0.9,0.8,2.2,0.8,3.7
			c0,1.5-0.3,2.7-0.8,3.6c-0.5,1-1.5,1.7-2.7,2.1c-1.3,0.5-2.9,0.7-5,0.7c-2.1,0-3.8-0.2-5-0.7c-1.3-0.5-2.2-1.2-2.7-2.1
			c-0.5-0.9-0.8-2.1-0.8-3.6c0-1.5,0.3-2.7,0.8-3.7c0.5-1,1.5-1.7,2.7-2.1C376.3,186,378,185.8,380.1,185.8z M380.1,187.9
			c-2.3,0-3.8,0.3-4.7,1c-0.9,0.7-1.4,1.8-1.4,3.3s0.4,2.6,1.4,3.3c0.9,0.7,2.5,1,4.7,1c2.3,0,3.8-0.3,4.7-1
			c0.9-0.7,1.3-1.8,1.3-3.3s-0.4-2.6-1.3-3.3C383.9,188.2,382.4,187.9,380.1,187.9z M391,186.3l-0.2,1.6l-5.2,0.3l-1.5-1.9H391z"/>
	</g>
	<g>
		<path class="st1" d="M328.7,58.4c-3.5-2.9-7-4.3-10.5-4.3h-32.7c-2.6,0-4.3,0.1-5.3,0.5c-1,0.3-2.7,1.2-5.3,2.8l-3.1,2.3
			c-1.9,1.3-3.1,2.5-3.7,3.6c-0.6-1.1-1.8-2.6-4.3-4.8c-3.5-2.9-7-4.3-10.5-4.3h-30.9c-2.6,0-4.3,0.1-5.3,0.5
			c-1,0.3-2.7,1.2-5.2,2.8c-2.2,1.3-3.6,2.5-4.4,3.8c-0.6-1.2-1.6-2.5-3.1-3.7c-1.7-1.4-3.1-2.3-4.1-2.7c-1-0.4-2.8-0.6-5.4-0.6
			h-8.2v11.1c0,2.9,0.2,3.9,0.4,4.3c0.3,0.8,1.1,1.7,2.5,2.8c1.5,1.1,1.8,1.7,1.8,1.9c0.1,0.3,0.3,1.2,0.3,3.7v81h19.2V79.9
			c0-2.4,0.3-3.3,0.5-3.6c0.1-0.2,0.8-1,4-3c3-1.8,4.3-2.4,4.8-2.6c0.5-0.2,1.8-0.4,4.8-0.4h20.8c3.1,0,4.1,0.2,4.4,0.3
			c0.4,0.1,1.1,0.5,2.6,1.6c1.5,1.1,1.8,1.7,1.8,1.9c0.1,0.3,0.3,1.2,0.3,3.7v81h19.2l0-80.9c0.1-0.9,0.9-2.4,4.5-4.6
			c3-1.8,4.3-2.4,4.8-2.6c0.5-0.2,1.8-0.4,4.7-0.4h22.6c3.1,0,4.1,0.2,4.4,0.3c0.4,0.1,1.1,0.5,2.6,1.6c1.5,1.1,1.8,1.7,1.8,1.9
			c0.1,0.3,0.3,1.2,0.3,3.7v81h19.2V73.5c0-4.4-1.8-8.1-5.3-11L328.7,58.4z"/>
		<path class="st1" d="M158.7,141.8c-2-1.3-2.4-2-2.5-2.3c-0.1-0.4-0.4-1.6-0.4-5.5V6.5h-19.2v138c0,4.4,0.3,5.7,0.6,6.3
			c0.4,1,1.7,2.2,4,3.7l4.5,3.1c2.2,1.4,3.6,2.3,4.6,2.6c0.9,0.3,2.7,0.5,5.5,0.5h7.2v-9c0-4.4-0.3-5.7-0.6-6.3
			C161.8,144.5,160.7,143.4,158.7,141.8z"/>
		<path class="st1" d="M110,142.5c-1.5-1.2-1.8-1.7-1.8-1.9c-0.1-0.3-0.3-1.2-0.3-3.7V75.4l-0.1-0.6L88.1,56.2L87.9,56L87.6,56
			c-0.1,0-0.3,0-0.4,0H38.9c-2.6,0-4.4,0.2-5.4,0.6c-0.6,0.2-1.9,0.9-5.3,3.8l-1,0.9l1.1,0.7c10.9,6.9,17,10.4,18,10.4h32.2
			l10.2,8.8v18.8c-0.2-0.2-0.5-0.4-0.8-0.7c-1.3-1-2.4-1.7-3.2-1.9c-0.4-0.1-0.9-0.2-1.8-0.3l-38,0c-3.5,0-7,1.5-10.5,4.3l-4.9,4.1
			c-3.5,2.9-5.3,6.6-5.3,11v24.7c0,4.4,1.8,8.1,5.3,11l4.9,4.1c3.5,2.9,7,4.3,10.5,4.3h32.3c2.6,0,4.3-0.1,5.3-0.5
			c1-0.3,2.7-1.2,5.3-2.8c1.2-0.7,2.2-1.4,3-2.1l0.2-0.2c0.6-0.4,1-0.8,1.4-1.2c0.6,1.1,1.6,2.3,3,3.4c1.7,1.5,3.1,2.4,4.1,2.7
			c1,0.4,2.8,0.6,5.4,0.6h8.2v-11.1c0-2.9-0.2-3.9-0.4-4.3C112.2,144.5,111.4,143.6,110,142.5z M88.7,120.9v14
			c0,2.5-0.3,3.4-0.5,3.6c-0.1,0.2-0.8,1-4,3c-3,1.8-4.3,2.4-4.8,2.6c-0.5,0.2-1.8,0.4-4.7,0.4H49.6c-3.1,0-4.1-0.2-4.4-0.3
			c-0.4-0.1-1.1-0.5-2.6-1.6c-1.5-1.2-1.8-1.7-1.8-1.9c-0.1-0.3-0.3-1.2-0.3-3.7v-16c0-2.5,0.2-3.4,0.3-3.7c0.1-0.2,0.4-0.8,1.8-1.9
			c1.4-1.1,2.2-1.5,2.6-1.6c0.3-0.1,1.4-0.3,4.4-0.3h30c3.1,0,4.1,0.2,4.4,0.3c0.4,0.1,1.1,0.5,2.6,1.6c1.5,1.1,1.8,1.7,1.8,1.9
			C88.5,117.5,88.7,118.3,88.7,120.9z"/>
		<path class="st1" d="M452.5,142.5c-1.5-1.2-1.8-1.7-1.8-1.9c-0.1-0.3-0.3-1.2-0.3-3.7V75.4l0-0.6l-19.7-18.6l-0.2-0.2l-0.3,0
			c-0.1,0-0.3,0-0.4,0h-48.3c-2.6,0-4.4,0.2-5.4,0.6c-0.6,0.2-1.9,0.9-5.3,3.8l-1,0.9l1.1,0.7c10.9,6.9,17,10.4,18,10.4h32.2
			l10.2,8.8v18.8c-0.2-0.2-0.5-0.4-0.8-0.7c-1.3-1-2.4-1.7-3.2-1.9c-0.4-0.1-0.9-0.2-1.8-0.3l-38,0c-3.5,0-7,1.5-10.5,4.3l-4.9,4.1
			c-3.5,2.9-5.3,6.6-5.3,11v24.7c0,4.4,1.8,8.1,5.3,11l4.9,4.1c3.5,2.9,7,4.3,10.5,4.3h32.3c2.6,0,4.3-0.1,5.3-0.5
			c1-0.3,2.7-1.2,5.3-2.8c1.2-0.7,2.2-1.4,3-2.1l0.2-0.2c0.6-0.4,1-0.8,1.4-1.2c0.6,1.1,1.6,2.3,3,3.4c1.7,1.5,3.1,2.4,4.1,2.7
			c1,0.4,2.8,0.6,5.4,0.6h8.2v-11.1c0-2.9-0.2-3.9-0.4-4.3C454.7,144.5,453.9,143.6,452.5,142.5z M431.2,120.9v14
			c0,2.5-0.3,3.4-0.5,3.6c-0.1,0.2-0.8,1-4,3c-3,1.8-4.3,2.4-4.8,2.6c-0.5,0.2-1.8,0.4-4.7,0.4H392c-3.1,0-4.1-0.2-4.4-0.3
			c-0.4-0.1-1.1-0.5-2.6-1.6c-1.5-1.2-1.8-1.7-1.8-1.9c-0.1-0.3-0.3-1.2-0.3-3.7v-16c0-2.5,0.2-3.4,0.3-3.7c0.1-0.2,0.4-0.8,1.8-1.9
			c1.4-1.1,2.2-1.5,2.6-1.6c0.3-0.1,1.4-0.3,4.4-0.3h30c3.1,0,4.1,0.2,4.4,0.3c0.4,0.1,1.1,0.5,2.6,1.6c1.5,1.2,1.8,1.7,1.8,1.9
			C431,117.5,431.2,118.3,431.2,120.9z"/>
		<path class="st1" d="M553.9,70.3V55.9h-78.1v6.3c0,4.4,0.3,5.7,0.6,6.3c0.4,0.9,1.5,2.1,3.5,3.6l0.3,0.2h50.6l-54.2,69.9
			c-1,1.3-1.5,2.9-1.5,4.5v14h78.9v-6.3c0-4.4-0.3-5.7-0.6-6.3c-0.4-0.9-1.5-2.1-3.5-3.6l-0.3-0.2h-51.9l54.7-69.5
			C553.3,73.6,553.9,72,553.9,70.3z"/>
	</g>
</g>
<g>
</g>
<g>
</g>
<g>
</g>
<g>
</g>
<g>
</g>
<g>
</g>
<g>
</g>
<g>
</g>
<g>
</g>
<g>
</g>
<g>
</g>
<g>
</g>
<g>
</g>
<g>
</g>
<g>
</g>
</svg>
