<svg xmlns="http://www.w3.org/2000/svg" viewBox="0 0 388.64 378.56"><defs><style>.cls-1{fill:#3c3;}</style></defs><g id="Camada_2" data-name="Camada 2"><g id="Camada_1-2" data-name="Camada 1"><path class="cls-1" d="M379.12,216.72h-33a9.52,9.52,0,1,1,0-19h33a9.81,9.81,0,0,1,9.52,9.51A9.44,9.44,0,0,1,379.12,216.72Z"></path><path class="cls-1" d="M189.84,52.08a9.81,9.81,0,0,1-9.52-9.52v-33a9.52,9.52,0,0,1,19,0v33A9.44,9.44,0,0,1,189.84,52.08Z"></path><path class="cls-1" d="M42,216.72H9.52a9.52,9.52,0,0,1,0-19h33a9.81,9.81,0,0,1,9.52,9.52c0,5-5,9.52-10.08,9.52Z"></path><path class="cls-1" d="M65,96.32a10.33,10.33,0,0,1-6.72-2.8l-23-23a9.15,9.15,0,0,1,0-13.44,9.13,9.13,0,0,1,13.44,0l23,23a9.15,9.15,0,0,1,0,13.44A8.87,8.87,0,0,1,65,96.32Z"></path><path class="cls-1" d="M308.56,100.24a10.33,10.33,0,0,1-6.72-2.8,9.15,9.15,0,0,1,0-13.44l23-23a9.5,9.5,0,0,1,13.44,13.44l-23,23c-1.68,2.24-3.92,2.8-6.72,2.8Z"></path><path class="cls-1" d="M224.56,324.24H154a9.81,9.81,0,0,0-9.52,9.52,44.8,44.8,0,0,0,89.6,0,9.11,9.11,0,0,0-9.52-9.52Zm-35.28,35.27a26.31,26.31,0,0,1-24.08-16.23h48.16C210,352.8,200.48,359.51,189.28,359.51Z"></path><path class="cls-1" d="M269.36,128.8c-19.6-27.44-49.28-43.68-80.08-43.68-30.24,0-60.48,16.24-80.08,43.68-23,32.48-23,85.68,0,116.48,19,25.2,34.72,65.52,34.72,66.08a9.6,9.6,0,0,0,9,6.16h72.24a9.6,9.6,0,0,0,9-6.16c0-.56,15.68-40.88,34.72-66.08,23.52-30.24,23.52-84,.56-116.48Zm-80.08,87.92A15.12,15.12,0,1,1,204.4,201.6,15.06,15.06,0,0,1,189.28,216.72Zm65,17.36c-16.24,21.28-29.68,51.52-34.72,64.4h-19.6v-64.4A34.29,34.29,0,0,0,224,201.6a34.16,34.16,0,1,0-43.12,33V299H160.16c-5.6-12.88-19-43.12-34.72-64.4-18.48-24.08-17.92-68.32,0-94.08,15.68-22.4,39.76-35.84,64.4-35.84s48.16,13.44,64.4,35.84c17.92,25.2,17.92,69.44,0,93.52Z"></path></g></g></svg>