<svg xmlns="http://www.w3.org/2000/svg" viewBox="0 0 468.25 481.23"><defs><style>.cls-1{fill:#3c3;}</style></defs><g id="Camada_2" data-name="Camada 2"><g id="Camada_1-2" data-name="Camada 1"><path class="cls-1" d="M101.61,306.85,224.93,430.17a13,13,0,0,0,18.38,0l123.6-123.62a181.52,181.52,0,0,0,49.31-124.46C416.22,81.69,334.53,0,234.13,0S52,81.67,52,182.09a179.89,179.89,0,0,0,15.73,74,181.84,181.84,0,0,0,33.85,50.75ZM234.12,26C320.18,26,390.2,96,390.2,182.07a155.85,155.85,0,0,1-41.95,106.39L234.13,402.58,120.31,288.76A155.6,155.6,0,0,1,78,182.08C78.05,96,148.07,26,234.13,26Z"></path><path class="cls-1" d="M467.69,464.49,432.07,345.75a5.39,5.39,0,0,0-5.17-3.85H411a5.41,5.41,0,0,0-5.18,7l31.91,106.37H30.49L62.4,348.85a5.39,5.39,0,0,0-5.17-7H41.35a5.4,5.4,0,0,0-5.18,3.85L.55,464.48A13,13,0,0,0,13,481.23H455.26a13,13,0,0,0,12.43-16.75Z"></path><path class="cls-1" d="M234.12,260.12a78,78,0,1,0-78.05-78A78.13,78.13,0,0,0,234.12,260.12Zm0-130.06a52,52,0,1,1-52,52A52.1,52.1,0,0,1,234.12,130.06Z"></path></g></g></svg>