<svg xmlns="http://www.w3.org/2000/svg" viewBox="0 0 326.67 395.5"><defs><style>.cls-1{fill:#3c3;}</style></defs><g id="Camada_2" data-name="Camada 2"><g id="Camada_1-2" data-name="Camada 1"><path class="cls-1" d="M326.67,103.13a12.7,12.7,0,0,0-.59-3,3.69,3.69,0,0,0,0-1,13.62,13.62,0,0,0-2.21-3.5L230.54,2.22h0A13.32,13.32,0,0,0,227,0H11.66A11.67,11.67,0,0,0,0,11.67V383.84A11.64,11.64,0,0,0,11.66,395.5H315a11.66,11.66,0,0,0,11.67-11.66V103.13ZM233.33,38.62l53.56,53.55H233.33Zm70,333.55h-280v-350H210v81.66a11.68,11.68,0,0,0,11.67,11.67h81.67Z"></path><path class="cls-1" d="M58.34,150.5A11.66,11.66,0,0,0,70,162.17H256.66a11.67,11.67,0,1,0,0-23.33H70A11.66,11.66,0,0,0,58.34,150.5Z"></path><path class="cls-1" d="M233.34,232.17a11.67,11.67,0,0,0,0-23.33h-140a11.67,11.67,0,1,0,0,23.33Z"></path><path class="cls-1" d="M256.67,278.84H70a11.67,11.67,0,1,0,0,23.33H256.67a11.67,11.67,0,0,0,0-23.33Z"></path></g></g></svg>