<svg xmlns="http://www.w3.org/2000/svg" viewBox="0 0 504 470.4"><defs><style>.cls-1{fill:#3c3;}</style></defs><g id="Camada_2" data-name="Camada 2"><g id="Camada_1-2" data-name="Camada 1"><path class="cls-1" d="M438.7,349.89A67.2,67.2,0,1,0,334.32,274.4a84,84,0,1,0-164.64,0A67.2,67.2,0,1,0,65.3,349.89,106.38,106.38,0,0,0,0,448v11.2a11.2,11.2,0,0,0,11.2,11.2H492.8A11.2,11.2,0,0,0,504,459.2V448a106.42,106.42,0,0,0-65.3-98.11ZM397.6,252a44.79,44.79,0,1,1-31.68,13.12A44.83,44.83,0,0,1,397.6,252Zm-41.11,97.89a98.67,98.67,0,0,0-9.52,4.53,117.2,117.2,0,0,0-45.86-28.84,83.91,83.91,0,0,0,30.52-41.43,66.83,66.83,0,0,0,24.86,65.74ZM252,196a61.61,61.61,0,1,1-43.55,18A61.6,61.6,0,0,1,252,196ZM173.6,296.8a68.08,68.08,0,0,0-1.24-12.66,84,84,0,0,0,30.52,41.44,117.17,117.17,0,0,0-46.08,28.84,101.18,101.18,0,0,0-9.52-4.54A67.21,67.21,0,0,0,173.6,296.8Zm-112,0a44.79,44.79,0,1,1,13.12,31.67A44.77,44.77,0,0,1,61.6,296.8Zm61.59,140V448H22.39a84,84,0,0,1,120.18-75.71A116.94,116.94,0,0,0,123.2,436.8ZM358.39,448H145.59V436.8a95.22,95.22,0,0,1,95.2-95.21h22.4a95.21,95.21,0,0,1,95.2,95.21Zm22.4,0V436.8a117,117,0,0,0-19.38-64.51A84,84,0,0,1,481.6,448Z"></path><path class="cls-1" d="M179.2,67.2A11.2,11.2,0,0,0,168,56H100.8a11.2,11.2,0,0,0,0,22.4H168a11.2,11.2,0,0,0,11.2-11.2Z"></path><path class="cls-1" d="M56,134.4h76.16l40.15,31.24h0A11.23,11.23,0,0,0,179.2,168a11.81,11.81,0,0,0,4.93-1.12,11.2,11.2,0,0,0,6.27-10.08V134.4h22.4A11.2,11.2,0,0,0,224,123.2V11.2A11.2,11.2,0,0,0,212.8,0H56A11.19,11.19,0,0,0,44.8,11.2v112A11.2,11.2,0,0,0,56,134.4Zm11.2-112H201.6V112H179.2A11.19,11.19,0,0,0,168,123.2v10.69l-25.15-19.54A11.17,11.17,0,0,0,136,112H67.2Z"></path><path class="cls-1" d="M380.8,128.8h56a11.2,11.2,0,1,0,0-22.4h-56a11.2,11.2,0,1,0,0,22.4Z"></path><path class="cls-1" d="M336,173.6h22.4V196a11.19,11.19,0,0,0,6.27,10.08,11.72,11.72,0,0,0,4.93,1.12,11.3,11.3,0,0,0,6.89-2.35l40.15-31.25h65a11.2,11.2,0,0,0,11.2-11.2V72.8a11.2,11.2,0,0,0-11.2-11.2H336a11.19,11.19,0,0,0-11.2,11.2v89.6A11.2,11.2,0,0,0,336,173.6ZM347.2,84H470.4v67.2H412.78a11.17,11.17,0,0,0-6.83,2.35L380.8,173.09V162.4a11.2,11.2,0,0,0-11.2-11.2H347.2Z"></path></g></g></svg>