<svg xmlns="http://www.w3.org/2000/svg" viewBox="0 0 480 480"><defs><style>.cls-1{fill:#3c3;fill-rule:evenodd;}</style></defs><g id="Camada_2" data-name="Camada 2"><g id="Camada_1-2" data-name="Camada 1"><path class="cls-1" d="M240,40C129.54,40,40,129.54,40,240s89.54,200,200,200,200-89.54,200-200S350.46,40,240,40ZM0,240C0,107.45,107.45,0,240,0S480,107.45,480,240,372.55,480,240,480,0,372.55,0,240Z"></path><path class="cls-1" d="M240,100a20,20,0,0,1,20,20V231.71l64.14,64.14a20,20,0,1,1-28.28,28.29l-70-70A20,20,0,0,1,220,240V120a20,20,0,0,1,20-20Z"></path></g></g></svg>